<?xml version="1.0" standalone="no"?>
<!DOCTYPE svg PUBLIC "-//W3C//DTD SVG 20010904//EN"
 "http://www.w3.org/TR/2001/REC-SVG-20010904/DTD/svg10.dtd">
<svg version="1.0" xmlns="http://www.w3.org/2000/svg"
 width="250.000000pt" height="250.000000pt" viewBox="0 0 250.000000 250.000000"
 preserveAspectRatio="xMidYMid meet">
<metadata>
Created by potrace 1.11, written by Peter Selinger 2001-2013
</metadata>
<g transform="translate(0.000000,250.000000) scale(0.100000,-0.100000)"
fill="#000000" stroke="none">
<path d="M1088 2425 c-309 -59 -593 -249 -760 -511 -54 -85 -118 -230 -146
-331 -24 -90 -26 -113 -26 -288 0 -173 3 -199 27 -287 95 -357 366 -654 708
-779 113 -41 195 -59 314 -69 209 -16 411 23 600 115 235 116 404 285 520 520
320 649 -35 1422 -740 1611 -84 22 -126 27 -260 30 -112 2 -183 -1 -237 -11z
m377 -19 c88 -14 143 -29 275 -78 48 -18 218 -116 255 -148 16 -14 42 -37 57
-52 15 -14 28 -24 28 -22 0 3 18 -16 40 -43 23 -26 50 -59 62 -73 102 -120
204 -354 228 -520 13 -92 14 -276 1 -350 -33 -192 -103 -356 -221 -514 -39
-53 -179 -196 -192 -196 -4 0 -21 -13 -38 -29 -45 -40 -210 -124 -305 -155
-261 -84 -537 -76 -781 24 -145 59 -254 131 -365 240 -210 208 -322 454 -336
741 -11 229 26 391 140 609 48 90 94 153 179 240 107 110 164 151 318 226 98
48 102 50 191 74 151 40 309 49 464 26z"/>
<path d="M1185 2378 c-342 -28 -678 -252 -845 -561 -329 -610 -25 -1363 635
-1570 231 -73 508 -60 738 34 306 124 552 405 637 727 133 503 -104 1031 -565
1259 -187 93 -380 129 -600 111z m328 -29 c56 -11 115 -26 132 -34 165 -72
253 -123 317 -183 26 -24 27 -27 12 -43 -15 -16 -14 -17 5 -12 12 3 21 9 21
13 0 5 15 -6 33 -23 41 -39 40 -47 -1 -17 -30 22 -45 23 -99 3 -13 -4 -11 1 9
23 26 28 27 30 9 41 -17 11 -26 4 -77 -53 -53 -61 -56 -67 -40 -82 15 -15 17
-15 32 6 8 12 21 22 29 22 11 0 11 -7 3 -36 -8 -30 -7 -40 7 -53 20 -20 30 -6
40 54 6 40 8 43 45 49 64 10 74 -1 32 -37 -20 -18 -50 -44 -66 -59 l-29 -26
32 -41 c35 -44 38 -46 60 -32 11 7 10 13 -8 32 -24 26 -26 35 -10 44 6 4 17
-3 26 -14 10 -15 21 -20 34 -16 14 5 17 3 13 -9 -7 -18 -20 -21 -29 -6 -3 6
-11 10 -17 10 -7 0 -7 -4 -1 -12 6 -7 9 -35 7 -61 -3 -55 11 -68 48 -43 12 9
40 15 63 15 l40 -2 -41 -6 c-23 -4 -53 -15 -68 -24 -25 -17 -34 -28 -18 -26
20 3 23 -3 11 -18 -10 -11 -10 -14 -1 -9 8 5 12 -1 12 -21 -1 -27 -1 -27 -15
-9 -8 11 -15 24 -15 29 0 35 -158 223 -225 269 -16 11 -2 -5 32 -36 34 -31 85
-88 112 -126 97 -133 142 -255 165 -442 8 -62 14 -95 15 -73 1 67 -18 210 -34
248 -8 20 -12 43 -9 52 4 9 -1 21 -11 29 -12 8 -16 19 -12 31 10 25 30 5 47
-45 7 -22 19 -45 27 -51 7 -6 13 -16 13 -22 0 -6 -9 -1 -20 11 -12 12 -23 22
-25 22 -12 0 -3 -21 17 -40 19 -17 21 -24 10 -40 -15 -24 -12 -25 32 -3 33 15
36 15 61 -1 15 -10 24 -20 22 -23 -3 -2 -16 3 -30 12 -17 11 -27 13 -32 6 -3
-6 -15 -11 -26 -11 -20 0 -21 -2 -23 -50 -1 -34 5 -38 57 -35 27 1 35 -1 27
-9 -6 -6 -27 -9 -48 -7 l-37 3 24 -26 c21 -22 23 -29 13 -51 -17 -37 -16 -38
21 -31 27 5 38 2 57 -19 14 -15 18 -25 10 -25 -7 0 -18 7 -25 16 -9 13 -19 15
-41 9 -21 -6 -24 -9 -11 -12 20 -5 22 -14 5 -31 -9 -9 -9 -12 1 -12 8 0 11 -7
8 -20 -4 -17 -3 -18 16 -8 20 10 21 10 8 -5 -15 -19 -43 -22 -71 -7 -18 9 -18
8 -9 -20 8 -23 7 -34 -5 -52 -22 -31 -20 -38 11 -38 18 0 35 -10 49 -27 l21
-27 7 31 c5 22 14 33 33 38 30 7 44 -2 17 -12 -41 -15 -54 -48 -21 -50 15 -2
18 0 8 6 -9 6 -10 11 -2 15 9 6 13 -1 13 -24 0 -3 -3 -16 -7 -30 -7 -25 -7
-25 10 -5 l17 20 -7 -20 c-4 -11 -11 -31 -15 -45 -51 -163 -216 -373 -385
-489 -351 -243 -834 -252 -1172 -24 -43 29 -51 39 -43 53 9 18 4 30 -12 30 -5
0 -6 -5 -2 -12 4 -7 3 -8 -4 -4 -13 8 1 46 16 46 21 -1 34 -19 27 -40 -7 -21
6 -39 26 -40 8 0 74 160 68 163 -2 1 -14 11 -26 21 -22 19 -23 18 -92 -43 -56
-50 -70 -58 -75 -44 -5 11 6 30 31 57 59 62 63 67 63 76 0 20 -23 21 -44 1
-26 -24 -41 -27 -33 -6 4 8 1 17 -5 21 -7 4 -8 3 -4 -4 4 -7 2 -12 -3 -12 -17
0 -13 11 10 37 18 19 20 25 9 38 -12 14 -15 13 -37 -6 -12 -13 -23 -17 -23
-11 0 6 9 16 20 22 11 6 20 15 20 21 0 13 -39 64 -48 64 -14 0 -32 16 -32 28
0 6 7 2 16 -9 13 -16 15 -16 10 -1 -8 26 13 21 23 -6 15 -40 162 -182 239
-231 40 -25 76 -46 80 -46 4 0 -26 22 -67 49 -187 122 -321 318 -365 533 -19
89 -21 244 -5 318 6 28 9 54 6 56 -6 7 -26 -86 -29 -138 -2 -20 -6 -34 -10
-32 -4 2 -9 0 -13 -6 -3 -5 -1 -10 4 -10 6 0 11 -10 10 -22 l0 -23 -10 23 c-5
13 -13 20 -19 17 -6 -4 -8 -11 -5 -16 4 -5 1 -9 -4 -9 -16 0 -13 14 8 41 21
27 25 79 7 92 -8 6 -7 10 2 14 9 4 5 11 -15 23 -25 15 -30 15 -51 2 -12 -8
-25 -12 -28 -10 -2 3 7 13 22 23 21 14 31 15 51 6 37 -17 43 -14 31 20 -9 26
-7 33 13 55 l22 24 -31 0 c-23 0 -36 7 -48 25 -19 29 -31 32 -38 8 -2 -10 -2
-1 1 20 4 30 1 42 -15 57 -11 10 -23 16 -28 12 -4 -4 -4 -1 0 6 4 7 12 9 18 6
10 -7 28 13 28 31 0 6 -4 3 -10 -5 -5 -8 -12 -11 -16 -7 -5 4 5 33 20 65 140
287 434 509 751 567 112 21 300 18 418 -6z m574 -440 c-1 -18 -3 -17 -25 5
-14 13 -21 29 -17 36 10 16 44 -16 42 -41z m12 -72 c-14 -32 -45 -51 -53 -32
-3 9 0 12 9 9 8 -3 21 6 30 20 21 32 28 34 14 3z m54 -12 c-3 -9 -8 -14 -10
-11 -3 3 -2 9 2 15 9 16 15 13 8 -4z m-43 -155 c0 -5 -4 -10 -10 -10 -5 0 -10
5 -10 10 0 6 5 10 10 10 6 0 10 -4 10 -10z m-1790 -160 c0 -15 -5 -12 -26 11
-19 22 -19 22 4 10 12 -6 22 -16 22 -21z m1974 11 c-10 -10 -21 -17 -23 -15
-6 6 20 34 32 34 6 0 2 -8 -9 -19z m-1876 -146 c0 -14 -4 -25 -8 -25 -5 0 -7
8 -5 18 2 9 4 20 4 25 2 18 9 4 9 -18z m1906 -100 c-10 -8 -23 -14 -29 -14 -5
0 -1 6 9 14 11 8 24 15 30 15 5 0 1 -7 -10 -15z m-1918 -46 c3 -5 -9 -6 -26
-3 -22 5 -37 1 -53 -12 -22 -18 -22 -18 1 7 16 19 30 25 48 21 13 -2 27 -8 30
-13z m1871 -136 c-3 -10 -5 -2 -5 17 0 19 2 27 5 18 2 -10 2 -26 0 -35z
m-1835 10 c-7 -12 -5 -25 6 -42 l16 -26 -22 21 c-20 21 -21 64 0 64 5 0 5 -7
0 -17z m-9 -90 c-20 -3 -37 -12 -44 -24 -6 -12 -13 -19 -16 -16 -2 3 2 14 9
26 9 16 22 21 48 19 l35 -1 -32 -4z m165 -268 c-3 -3 -9 2 -12 12 -6 14 -5 15
5 6 7 -7 10 -15 7 -18z m155 -215 c-5 -20 -15 -25 -26 -13 -5 4 18 30 30 33 0
0 -1 -9 -4 -20z m-108 -60 c3 -5 2 -10 -4 -10 -5 0 -13 5 -16 10 -3 6 -2 10 4
10 5 0 13 -4 16 -10z"/>
<path d="M1209 2338 c-9 -7 -22 -42 -29 -78 -6 -36 -14 -71 -16 -77 -2 -8 5
-13 16 -13 11 0 20 7 20 15 0 13 28 35 45 35 3 0 10 -12 15 -26 14 -35 36 -25
32 14 -4 51 -36 137 -52 140 -9 1 -23 -3 -31 -10z m33 -63 c4 -17 1 -25 -8
-25 -8 0 -14 11 -14 25 0 14 4 25 9 25 5 0 11 -11 13 -25z"/>
<path d="M1063 2323 c-7 -2 -13 -19 -14 -36 0 -18 -4 -40 -8 -50 -6 -16 -11
-13 -35 22 -23 33 -33 40 -50 35 -12 -4 -22 -8 -24 -9 -6 -5 40 -165 47 -165
3 0 12 4 19 8 10 7 9 17 -3 52 -19 53 -14 61 15 21 18 -26 25 -29 41 -21 11 6
19 21 19 35 0 41 16 36 28 -11 8 -29 17 -44 28 -44 18 0 15 28 -12 119 -14 48
-23 56 -51 44z"/>
<path d="M1450 2315 c0 -8 3 -15 8 -15 4 0 13 -4 20 -9 11 -7 11 -19 1 -71
-10 -51 -10 -63 2 -70 21 -13 26 -5 40 64 11 60 14 64 38 63 17 -1 26 3 26 13
0 10 -18 19 -50 26 -69 17 -85 16 -85 -1z"/>
<path d="M1592 2223 c-23 -66 -23 -67 -4 -93 22 -29 74 -39 99 -18 17 14 63
105 63 126 0 6 -8 12 -18 12 -13 0 -26 -18 -45 -60 -26 -61 -48 -76 -66 -42
-6 12 -2 33 14 72 17 40 20 57 12 62 -25 16 -34 6 -55 -59z"/>
<path d="M795 2223 c-16 -8 -31 -17 -33 -18 -5 -4 66 -143 76 -149 4 -2 14 -1
21 3 10 7 11 13 1 31 -6 12 -9 28 -6 36 5 13 11 12 36 -6 19 -13 37 -19 48
-15 15 6 14 9 -10 30 -18 16 -28 34 -28 53 0 52 -45 67 -105 35z m64 -26 c8
-11 6 -18 -8 -31 -19 -17 -20 -17 -31 4 -10 18 -9 24 1 31 19 12 25 11 38 -4z"/>
<path d="M1747 2145 c-42 -69 -44 -76 -27 -85 14 -8 21 -4 34 15 25 37 38 31
34 -17 -2 -34 1 -43 14 -46 17 -3 35 37 30 66 -2 6 4 12 12 12 20 0 48 43 40
63 -5 13 -75 67 -87 67 -2 0 -25 -34 -50 -75z m93 0 c0 -18 -17 -28 -36 -21
-11 4 -12 10 -4 25 11 22 40 18 40 -4z"/>
<path d="M657 2132 c-15 -16 -14 -23 15 -95 23 -57 35 -77 47 -75 10 2 16 14
16 30 0 36 19 55 38 39 14 -11 47 -6 47 8 0 10 -125 111 -137 111 -6 0 -17 -8
-26 -18z m63 -47 c6 -8 8 -20 4 -26 -5 -9 -11 -7 -21 6 -23 33 -9 51 17 20z"/>
<path d="M1140 2096 c-192 -41 -354 -137 -475 -283 -62 -75 -135 -215 -161
-308 -22 -80 -30 -265 -15 -351 46 -264 206 -477 446 -594 136 -67 210 -84
370 -83 112 0 142 4 220 27 222 67 401 218 501 421 69 141 87 230 81 399 -5
155 -19 211 -84 341 -103 204 -294 358 -518 420 -83 22 -282 28 -365 11z m115
-368 c49 -12 148 -64 170 -88 14 -16 8 -15 -42 6 -69 28 -182 32 -258 10 -271
-82 -355 -441 -149 -636 30 -28 80 -63 111 -78 50 -23 71 -27 153 -27 78 0
104 4 144 23 27 12 51 20 54 18 2 -3 -23 -23 -57 -44 -224 -145 -533 -60 -649
178 -65 134 -65 270 3 406 94 191 307 286 520 232z m401 -303 c21 -36 43 -65
49 -65 6 0 41 8 78 19 37 10 67 15 67 12 0 -4 -22 -29 -50 -56 -27 -27 -50
-53 -50 -58 0 -5 16 -36 36 -69 20 -32 34 -61 31 -64 -2 -3 -34 11 -70 31
l-65 36 -50 -60 c-49 -60 -65 -67 -57 -27 2 12 6 44 10 72 l5 51 -72 29 -73
28 65 14 c94 19 90 17 90 65 0 42 9 107 15 107 2 0 20 -29 41 -65z"/>
<path d="M554 2038 c-4 -7 2 -18 14 -26 25 -17 28 -35 8 -51 -10 -8 -20 -6
-41 10 -22 18 -29 20 -36 8 -7 -10 7 -29 53 -72 55 -51 63 -56 77 -43 13 14
12 18 -13 37 -26 20 -26 22 -10 40 17 19 18 19 39 -1 25 -24 41 -25 48 -6 4 9
-17 34 -53 65 -61 53 -74 59 -86 39z"/>
<path d="M2020 2009 c0 -5 5 -7 10 -4 6 3 10 8 10 11 0 2 -4 4 -10 4 -5 0 -10
-5 -10 -11z"/>
<path d="M1987 2003 c-12 -12 -7 -22 8 -17 8 4 15 10 15 15 0 11 -14 12 -23 2z"/>
<path d="M775 1954 l-30 -26 33 22 c17 12 32 23 32 26 0 7 -4 5 -35 -22z"/>
<path d="M455 1898 c-19 -8 -65 -69 -65 -85 0 -5 33 -27 73 -50 65 -38 73 -40
85 -25 11 14 10 19 -4 29 -9 7 -22 14 -28 16 -8 3 -7 8 2 18 6 7 12 25 12 39
0 46 -37 75 -75 58z m35 -50 c0 -7 -4 -19 -9 -27 -8 -12 -12 -12 -25 -2 -8 7
-12 19 -9 27 6 17 43 19 43 2z"/>
<path d="M689 1883 c-13 -16 -12 -17 4 -4 9 7 17 15 17 17 0 8 -8 3 -21 -13z"/>
<path d="M2005 1880 c3 -5 8 -10 11 -10 2 0 4 5 4 10 0 6 -5 10 -11 10 -5 0
-7 -4 -4 -10z"/>
<path d="M631 1813 c-30 -44 -26 -40 30 25 10 12 15 22 11 22 -5 0 -23 -21
-41 -47z"/>
<path d="M580 1740 c-6 -11 -8 -20 -6 -20 3 0 10 9 16 20 6 11 8 20 6 20 -3 0
-10 -9 -16 -20z"/>
<path d="M525 1638 c-19 -40 -37 -86 -40 -103 -3 -16 3 -7 13 20 11 28 31 74
46 103 14 28 24 52 21 52 -3 0 -21 -33 -40 -72z"/>
<path d="M2166 1273 c-6 -14 -5 -15 5 -6 7 7 10 15 7 18 -3 3 -9 -2 -12 -12z"/>
<path d="M2133 1195 c0 -22 2 -30 4 -17 2 12 2 30 0 40 -3 9 -5 -1 -4 -23z"/>
<path d="M2122 1130 c0 -14 2 -19 5 -12 2 6 2 18 0 25 -3 6 -5 1 -5 -13z"/>
<path d="M2111 1093 c-1 -6 -4 -20 -7 -30 -5 -17 -5 -17 6 0 6 10 9 23 6 30
-3 9 -5 9 -5 0z"/>
<path d="M2066 965 c-9 -26 -7 -32 5 -12 6 10 9 21 6 23 -2 3 -7 -2 -11 -11z"/>
<path d="M2046 844 c-3 -9 3 -31 14 -49 l20 -33 -36 8 c-38 9 -49 1 -118 -88
-11 -15 -30 -34 -41 -43 -15 -13 -19 -27 -17 -60 l3 -44 -24 29 c-22 27 -47
30 -47 5 0 -5 23 -39 52 -75 46 -57 54 -63 67 -50 13 14 13 18 -2 34 -15 17
-23 42 -13 42 2 0 19 -6 37 -14 28 -12 37 -12 52 -2 24 18 22 21 -25 35 -24 7
-48 17 -54 22 -11 9 -13 69 -3 79 2 3 31 -17 62 -45 32 -27 59 -50 60 -50 2 0
20 19 41 42 33 37 36 44 21 50 -12 4 -24 -1 -37 -16 -10 -14 -24 -21 -33 -17
-20 7 -19 19 5 41 15 14 17 21 8 32 -9 11 -15 10 -35 -9 -18 -17 -26 -19 -35
-10 -9 9 -7 17 9 34 11 13 19 28 16 34 -6 18 99 4 129 -18 50 -35 68 4 19 40
-16 11 -39 41 -51 66 -23 49 -34 56 -44 30z"/>
<path d="M1924 738 l-19 -23 23 19 c21 18 27 26 19 26 -2 0 -12 -10 -23 -22z"/>
<path d="M815 480 c-39 -77 -42 -95 -20 -104 10 -3 20 5 30 25 19 36 35 29 35
-15 0 -33 20 -62 33 -49 4 3 7 20 7 36 0 19 8 36 25 49 45 35 30 75 -42 112
l-33 16 -35 -70z m95 -15 c0 -16 -35 -21 -44 -6 -4 5 -3 16 0 25 5 12 10 13
25 5 10 -5 19 -16 19 -24z"/>
<path d="M1713 520 c-18 -11 -33 -22 -33 -25 0 -10 75 -145 80 -145 3 0 11 4
18 9 12 7 11 14 -2 39 -21 41 -1 49 37 14 25 -24 29 -25 43 -10 14 14 12 18
-15 41 -19 15 -31 35 -31 49 0 50 -42 62 -97 28z m57 -54 c-17 -22 -27 -20
-35 5 -9 28 14 44 34 24 12 -11 12 -17 1 -29z"/>
<path d="M1633 482 c-9 -6 -7 -21 9 -64 23 -65 19 -91 -14 -86 -18 2 -27 16
-43 61 -14 42 -25 57 -38 57 -16 0 -17 -5 -12 -31 12 -56 34 -98 59 -114 21
-14 28 -14 59 -1 47 19 53 44 27 121 -22 66 -26 71 -47 57z"/>
<path d="M962 412 c-27 -85 -28 -102 -2 -102 15 0 21 9 26 40 8 47 24 54 24
10 0 -43 25 -49 61 -14 30 29 30 29 21 4 -23 -62 -23 -80 -2 -80 15 0 24 14
41 70 11 39 18 77 15 85 -10 26 -40 16 -73 -22 l-32 -38 -1 47 c0 36 -5 50
-19 58 -32 17 -36 13 -59 -58z"/>
<path d="M1442 428 c-41 -8 -52 -13 -50 -26 2 -11 11 -16 25 -14 22 3 23 1 39
-90 5 -29 11 -38 26 -38 22 0 22 9 2 106 -5 26 -2 32 15 37 12 3 21 12 21 21
0 18 -2 18 -78 4z"/>
<path d="M1202 403 c-5 -10 -19 -44 -32 -76 -18 -45 -20 -61 -11 -70 9 -9 16
-7 30 12 22 29 55 25 59 -7 2 -15 9 -22 20 -20 18 3 19 49 6 141 -5 33 -9 37
-35 37 -17 0 -32 -7 -37 -17z m38 -53 c0 -21 -4 -28 -14 -24 -12 5 -13 11 -4
30 15 31 18 30 18 -6z"/>
<path d="M2060 1925 c7 -9 15 -13 17 -11 7 7 -7 26 -19 26 -6 0 -6 -6 2 -15z"/>
</g>
</svg>
